<mxfile host="app.diagrams.net" modified="2022-08-16T01:41:55.928Z" agent="5.0 (Macintosh; Intel Mac OS X 10_15_7) AppleWebKit/605.1.15 (KHTML, like Gecko) Version/15.6 Safari/605.1.15" etag="LR29LeUsOZkYFWGffTnO" version="20.2.2" type="github">
  <diagram id="x5m4VUnTAhTG1zSjABzX" name="第 1 页">
    <mxGraphModel dx="758" dy="538" grid="1" gridSize="10" guides="1" tooltips="1" connect="1" arrows="1" fold="1" page="1" pageScale="1" pageWidth="827" pageHeight="1169" math="0" shadow="0">
      <root>
        <mxCell id="0" />
        <mxCell id="1" parent="0" />
        <mxCell id="69J51jnSXScKdbFiQXBX-2" value="原文" style="rounded=1;whiteSpace=wrap;html=1;" vertex="1" parent="1">
          <mxGeometry x="50" y="80" width="100" height="50" as="geometry" />
        </mxCell>
        <mxCell id="69J51jnSXScKdbFiQXBX-3" value="一次性对称密钥" style="rounded=1;whiteSpace=wrap;html=1;" vertex="1" parent="1">
          <mxGeometry x="50" y="260" width="100" height="50" as="geometry" />
        </mxCell>
      </root>
    </mxGraphModel>
  </diagram>
</mxfile>
